# xmcd CD database file
#
# Track frame offsets:
#	150
#	15003
#	36336
#	55559
#	69096
#	91676
#	108687
#	125912
#	145014
#	159439
#	178429
#	197227
#	217304
#
# Disc length: 3191 seconds
#
# Revision: 0
# Processed by: cddbd v1.5.1PL0 Copyright (c) Steve Scherf et al.
# Submitted via: CDex 1.51
#
DISCID=b60c750d
DTITLE=Cory Joynt - Joynt Time
DYEAR=2004
DGENRE=Jazz
TTITLE0=I'm Just A Lucky So And So
TTITLE1=Some Other Time
TTITLE2='Til There Was You - For Billie Joynt
TTITLE3=Walkin' After Midnight
TTITLE4=What A Difference A Day Made
TTITLE5=Giant Steps
TTITLE6=You Wouldn't Do That To Me
TTITLE7=It Had To Be You
TTITLE8=Here's That Rainy Day
TTITLE9=The Nearness Of You
TTITLE10=Alright, Okay You Win
TTITLE11=You Are There
TTITLE12=So In Love
EXTD=YEAR: 2004
EXTT0=
EXTT1=
EXTT2=
EXTT3=
EXTT4=
EXTT5=
EXTT6=
EXTT7=
EXTT8=
EXTT9=
EXTT10=
EXTT11=
EXTT12=
PLAYORDER=
